:SAMPLES-PER-SECOND 30
:FRAME-RANGE 1-668
:FULLY-SPECIFIED
:DEGREES
293
root  49.0818 38.3945 -3.69872 118.964 -84.2319 -119.104
RightUpLeg  -12.0933 4.03916 7.97603
RightLeg  27.3553 -6.96129 -4.2073
RightFoot  -15.1596 -0.0838775 0.561491
RightToes  -1.33073e-015 0 -3.6325e-017
Spine  7.29564 -2.22073 1.1021
Spine1  0.610618 -5.1109 16.0717
HEad  -1.03655 39.9587 -9.97914
LeftShoulder1  1.44214 -1.42537 -22.964
LeftArm  -36.2342 -24.9157 -6.13231
LeftForeArm  -9.06998 -17.997 -7.34644
LeftHand  0.0156471 3.79365 -2.81228
RightShoulder  4.30845 3.72263 52.2276
RightArm  -5.84849 -1.69025 6.35417
RightForeArm  26.9775 40.7361 7.89542
RightHand  -1.45875 3.47792 -19.1846
LeftUpLeg  -22.9796 8.40728 16.4649
LeftLeg  42.4807 -3.00555 -2.57054
LeftFoot  -6.64013 0.417382 -9.18605
LeftToes  -2.73175e-012 1.00346e-010 -4.28452e-011
294
root  48.4264 38.4766 -2.94149 144.501 -81.4341 -144.418
RightUpLeg  -11.1614 7.9944 6.80297
RightLeg  26.7936 -6.54816 -3.86385
RightFoot  -15.3905 -0.0476952 1.59837
RightToes  -1.33073e-015 0 -3.6325e-017
Spine  7.41559 -1.86464 0.795269
Spine1  -0.40034 -4.75645 16.2954
HEad  0.124135 38.8621 -9.94918
LeftShoulder1  1.36948 -0.958101 -24.4688
LeftArm  -32.3567 -19.9233 -6.21352
LeftForeArm  -12.5625 -22.2159 -5.77559
LeftHand  -0.0178875 4.54767 -1.0913
RightShoulder  4.32731 3.70566 52.5685
RightArm  -11.39 -0.63584 4.58548
RightForeArm  28.7574 43.3135 8.60706
RightHand  -1.52794 3.42607 -20.1792
LeftUpLeg  -20.675 4.02466 19.3265
LeftLeg  32.3335 -4.89921 -3.00067
LeftFoot  -6.34828 0.423806 -8.83667
LeftToes  -2.73175e-012 1.00346e-010 -4.28452e-011
295
root  47.7655 38.486 -2.14351 156.472 -77.6426 -156.211
RightUpLeg  -10.5793 12.2461 5.57865
RightLeg  26.6764 -6.16617 -3.59957
RightFoot  -15.8913 0.0065499 2.87408
RightToes  -1.33073e-015 0 -3.6325e-017
Spine  7.53445 -1.58578 0.836286
Spine1  -1.13499 -4.36187 15.9861
HEad  1.2513 35.9009 -9.8092
LeftShoulder1  1.25093 -0.414649 -25.7478
LeftArm  -32.0543 -14.2298 -5.99247
LeftForeArm  -9.47999 -26.6584 -6.21027
LeftHand  -0.0277922 4.58579 0.47097
RightShoulder  4.5056 3.96461 52.8233
RightArm  -17.6766 0.629943 2.56973
RightForeArm  30.898 46.2606 9.49755
RightHand  -1.58601 3.24272 -21.3471
LeftUpLeg  -17.9576 -2.75745 22.0894
LeftLeg  23.3314 -6.88731 -2.92902
LeftFoot  -6.61586 0.429198 -9.42744
LeftToes  -2.73175e-012 1.00346e-010 -4.28452e-011
296
root  47.094 38.4183 -1.25513 163.962 -73.3877 -163.744
RightUpLeg  -10.3955 16.5749 3.78916
RightLeg  27.2526 -5.54789 -3.33624
RightFoot  -16.8054 0.0978672 4.43623
RightToes  -1.33073e-015 0 -3.6325e-017
Spine  8.06274 -1.30167 0.900004
Spine1  -2.0289 -3.81448 15.147
HEad  2.97908 30.9329 -9.03603
LeftShoulder1  1.14191 0.00349885 -26.4681
LeftArm  -32.8225 -7.76291 -6.09191
LeftForeArm  -6.43905 -31.2072 -7.18629
LeftHand  -0.0331518 4.60301 1.38761
RightShoulder  4.89805 4.58612 52.9978
RightArm  -24.4373 2.20628 0.140502
RightForeArm  32.9298 49.3105 10.5493
RightHand  -1.64633 3.19972 -22.2377
LeftUpLeg  -15.5472 -8.90407 23.2428
LeftLeg  17.653 -8.30254 -2.637
LeftFoot  -7.58718 0.347548 -9.20555
LeftToes  -2.73175e-012 1.00346e-010 -4.28452e-011
297
root  46.3842 38.2676 -0.261113 169.389 -69.2166 -169.442
RightUpLeg  -10.7192 20.1293 1.06393
RightLeg  28.4952 -4.1568 -2.68365
RightFoot  -18.1665 0.249485 6.2453
RightToes  -1.33073e-015 0 -3.6325e-017
Spine  8.71129 -1.03342 0.626709
Spine1  -2.82092 -3.29082 14.2041
HEad  5.26528 23.96 -7.99064
LeftShoulder1  1.04717 0.351675 -27.0818
LeftArm  -34.2722 -1.30564 -6.65191
LeftForeArm  -4.04122 -36.0928 -8.41162
LeftHand  -0.0366161 4.27599 1.53486
RightShoulder  5.44801 5.60354 52.3759
RightArm  -32.0147 3.67977 -2.13885
RightForeArm  34.1732 52.5316 11.9004
RightHand  -1.65072 2.68996 -23.6403
LeftUpLeg  -14.0053 -9.60528 21.8864
LeftLeg  16.5602 -9.51922 -2.863
LeftFoot  -7.87703 0.518158 -15.5009
LeftToes  -2.73175e-012 1.00346e-010 -4.28452e-011
